<?xml version="1.0" encoding="UTF-8" standalone="no"?>
<!-- Created with Inkscape (http://www.inkscape.org/) -->

<svg
   width="125"
   height="125"
   viewBox="0 0 33.072917 33.072916"
   version="1.1"
   id="svg1"
   xml:space="preserve"
   xmlns="http://www.w3.org/2000/svg"
   xmlns:svg="http://www.w3.org/2000/svg"><defs
     id="defs1" /><g
     id="layer2"><path
       style="display:inline;opacity:1;fill:#156fc1;fill-opacity:1;stroke:#000000;stroke-width:0;stroke-dasharray:none;stroke-opacity:0.996552"
       d="m 7.2118078,8.4291014 c 0.00535,-1.3273323 1.5247348,-2.7869032 2.8520412,-2.7789 l 12.097099,0.072877 c 1.994722,0.013249 2.783723,1.1171569 2.783723,2.1842276 0,1.1945387 -0.861798,2.368592 -2.800949,2.387275 0,0 -5.615519,-0.07288 -8.009019,-0.07288 -0.330462,0 -0.731283,0.338969 -0.731283,0.669431 v 2.413244 c 0,0.333748 0.390194,0.691611 0.723942,0.691611 h 13.74795 c 1.242717,0 2.826548,1.188284 2.826548,2.431001 v 8.058154 c 0,1.588176 -0.931626,2.864603 -2.563609,2.864603 H 10.871716 c -1.6075213,0 -2.4992383,-1.12434 -2.5022063,-2.244862 -0.0026,-1.233972 0.8993222,-2.486705 2.7423543,-2.486705 h 12.863258 c 0.297256,0 0.63543,-0.328475 0.63543,-0.62573 v -2.749883 c 0,-0.299588 -0.346813,-0.624459 -0.646402,-0.624459 H 11.230084 c -1.8011622,0 -4.0438499,-1.782877 -4.0438499,-3.58404 0,-1.984678 0.026498,-6.6049675 0.026498,-6.6049675 z"
       id="path2" /></g><g
     id="layer3"
     style="opacity:1;stroke-width:0.1;stroke-dasharray:none"><path
       style="display:inline;opacity:1;fill:#61dbfb;fill-opacity:1;stroke:#69dbfa;stroke-width:0;stroke-dasharray:none;stroke-opacity:1"
       d="m 24.305907,11.599517 c -0.06811,-0.136207 -0.385609,-0.678309 0.008,-0.937033 C 25.0763,10.161281 25.550183,9.6564451 25.703012,8.7232541 25.770332,8.312258 25.837628,7.6790277 25.647892,7.2350364 25.039231,5.8107388 23.641724,5.1188891 21.890091,4.2112985 21.481533,3.9995592 21.507343,3.3169582 21.813765,2.9952416 c 0.814017,-0.8547752 1.777206,-1.8704085 2.618386,-2.58555203 0.317186,-0.26966953 0.934011,-0.27226667 1.248945,0 2.910766,2.51646503 4.106073,3.78478103 6.715793,6.51860403 0.537113,0.5626593 0.494236,1.7329231 0,2.3335575 -1.254907,1.5250539 -2.682279,3.2255919 -3.779692,3.7906359 -0.195574,0.100698 -1.777896,0.342096 -2.323489,0 -1.113473,-0.698156 -0.77188,-0.443116 -1.987779,-1.45297 z"
       id="path3" /></g><g
     id="g4"
     style="opacity:1;stroke-width:0.1;stroke-dasharray:none"><path
       style="display:inline;opacity:1;fill:#61dbfb;fill-opacity:1;stroke:#69dbfa;stroke-width:0;stroke-dasharray:none;stroke-opacity:1"
       d="m 8.8988574,21.577001 c 0.068111,0.136207 0.3856089,0.678308 -0.00796,0.937033 -0.7623934,0.501205 -1.2362773,1.00604 -1.3891048,1.93923 -0.067315,0.410997 -0.1346305,1.044227 0.055122,1.488217 0.6086112,1.424299 2.0061182,2.116157 3.7577504,3.023747 0.408559,0.211739 0.382748,0.894341 0.07633,1.216057 -0.814018,0.854776 -1.7772056,1.870409 -2.6183856,2.585553 -0.3171858,0.269668 -0.9340126,0.272266 -1.2489449,0 -2.910766,-2.516466 -4.1060727,-3.784781 -6.71579333,-6.518613 -0.53711303,-0.562659 -0.49423522,-1.732923 0,-2.333558 1.25490673,-1.525053 2.68227903,-3.225593 3.77969373,-3.790638 0.1955728,-0.100698 1.7778944,-0.342095 2.3234876,0 1.1134726,0.698158 0.7718804,0.443117 1.987778,1.452972 z"
       id="path4" /></g></svg>
